<svg width="512" height="512" viewBox="0 0 512 512" fill="none" xmlns="http://www.w3.org/2000/svg">
  <rect width="512" height="512" rx="128" fill="#EF4444"/>
  <path d="M256 96L128 224H192V416H320V224H384L256 96Z" fill="white"/>
  <circle cx="256" cy="256" r="32" fill="white"/>
  <path d="M256 160C211.817 160 176 195.817 176 240C176 284.183 211.817 320 256 320C300.183 320 336 284.183 336 240C336 195.817 300.183 160 256 160ZM256 288C229.49 288 208 266.51 208 240C208 213.49 229.49 192 256 192C282.51 192 304 213.49 304 240C304 266.51 282.51 288 256 288Z" fill="white" opacity="0.3"/>
</svg>
